<?xml version="1.0" encoding="utf-8"?>
<!-- Generator: Adobe Illustrator 18.0.0, SVG Export Plug-In . SVG Version: 6.00 Build 0)  -->
<!DOCTYPE svg PUBLIC "-//W3C//DTD SVG 1.1//EN" "http://www.w3.org/Graphics/SVG/1.1/DTD/svg11.dtd">
<svg version="1.1" id="Layer_1" xmlns="http://www.w3.org/2000/svg" xmlns:xlink="http://www.w3.org/1999/xlink" x="0px" y="0px"
	 viewBox="0 0 100 100" enable-background="new 0 0 100 100" xml:space="preserve">
<path fill="none" stroke="#666666" stroke-width="6" stroke-miterlimit="10" d="M50,0"/>
<path fill="none" stroke="#666666" stroke-width="6" stroke-miterlimit="10" d="M50,0"/>
<polyline fill="none" stroke="#666666" stroke-width="6" stroke-miterlimit="10" points="27.3,16.1 42,10 40.7,3 59.3,3 58,10 
	72.7,16.1 58,10 59.3,3 40.7,3 42,10 "/>
<path fill="none" stroke="#666666" stroke-width="6" stroke-miterlimit="10" d="M14.6,14.6"/>
<path fill="none" stroke="#666666" stroke-width="6" stroke-miterlimit="10" d="M14.6,14.6"/>
<polyline fill="none" stroke="#666666" stroke-width="6" stroke-miterlimit="10" points="10,42.1 16.1,27.4 10.2,23.3 23.3,10.2 
	27.4,16.1 42.1,10 27.4,16.1 23.3,10.2 10.2,23.3 16.1,27.4 "/>
<path fill="none" stroke="#666666" stroke-width="6" stroke-miterlimit="10" d="M0,50"/>
<path fill="none" stroke="#666666" stroke-width="6" stroke-miterlimit="10" d="M0,50"/>
<polyline fill="none" stroke="#666666" stroke-width="6" stroke-miterlimit="10" points="16.1,72.7 10,58 3,59.3 3,40.7 10,42 
	16.1,27.3 10,42 3,40.7 3,59.3 10,58 "/>
<path fill="none" stroke="#666666" stroke-width="6" stroke-miterlimit="10" d="M14.6,85.4"/>
<path fill="none" stroke="#666666" stroke-width="6" stroke-miterlimit="10" d="M14.6,85.4"/>
<polyline fill="none" stroke="#666666" stroke-width="6" stroke-miterlimit="10" points="42.1,90 27.4,83.9 23.3,89.8 10.2,76.7 
	16.1,72.6 10,57.9 16.1,72.6 10.2,76.7 23.3,89.8 27.4,83.9 "/>
<path fill="none" stroke="#666666" stroke-width="6" stroke-miterlimit="10" d="M50,100"/>
<path fill="none" stroke="#666666" stroke-width="6" stroke-miterlimit="10" d="M50,100"/>
<polyline fill="none" stroke="#666666" stroke-width="6" stroke-miterlimit="10" points="72.7,83.9 58,90 59.3,97 40.7,97 42,90 
	27.3,83.9 42,90 40.7,97 59.3,97 58,90 "/>
<path fill="none" stroke="#666666" stroke-width="6" stroke-miterlimit="10" d="M85.4,85.4"/>
<path fill="none" stroke="#666666" stroke-width="6" stroke-miterlimit="10" d="M85.4,85.4"/>
<polyline fill="none" stroke="#666666" stroke-width="6" stroke-miterlimit="10" points="90,57.9 83.9,72.6 89.8,76.7 76.7,89.8 
	72.6,83.9 57.9,90 72.6,83.9 76.7,89.8 89.8,76.7 83.9,72.6 "/>
<path fill="none" stroke="#666666" stroke-width="6" stroke-miterlimit="10" d="M100,50"/>
<path fill="none" stroke="#666666" stroke-width="6" stroke-miterlimit="10" d="M100,50"/>
<polyline fill="none" stroke="#666666" stroke-width="6" stroke-miterlimit="10" points="83.9,27.3 90,42 97,40.7 97,59.3 90,58 
	83.9,72.7 90,58 97,59.3 97,40.7 90,42 "/>
<path fill="none" stroke="#666666" stroke-width="6" stroke-miterlimit="10" d="M85.4,14.6"/>
<path fill="none" stroke="#666666" stroke-width="6" stroke-miterlimit="10" d="M85.4,14.6"/>
<polyline fill="none" stroke="#666666" stroke-width="6" stroke-miterlimit="10" points="57.9,10 72.6,16.1 76.7,10.2 89.8,23.3 
	83.9,27.4 90,42.1 83.9,27.4 89.8,23.3 76.7,10.2 72.6,16.1 "/>
<ellipse fill="none" stroke="#666666" stroke-width="0.25" stroke-miterlimit="10" cx="50" cy="50" rx="0.5" ry="0.3"/>
<circle fill="none" stroke="#666666" stroke-width="6" stroke-miterlimit="10" cx="50" cy="50" r="20"/>
</svg>
