<?xml version="1.0" encoding="utf-8"?>
<!-- Generator: Adobe Illustrator 18.0.0, SVG Export Plug-In . SVG Version: 6.00 Build 0)  -->
<!DOCTYPE svg PUBLIC "-//W3C//DTD SVG 1.1//EN" "http://www.w3.org/Graphics/SVG/1.1/DTD/svg11.dtd">
<svg version="1.1" id="Layer_1" xmlns="http://www.w3.org/2000/svg" xmlns:xlink="http://www.w3.org/1999/xlink" x="0px" y="0px"
	 viewBox="0 0 100 100" enable-background="new 0 0 100 100" xml:space="preserve">
<path display="none" fill="none" stroke="#666666" stroke-width="6" stroke-miterlimit="10" d="M50,0"/>
<path fill="none" stroke="#666666" stroke-width="6" stroke-miterlimit="10" d="M72.7,16.1"/>
<line display="none" fill="none" stroke="#666666" stroke-width="6" stroke-miterlimit="10" x1="42" y1="10" x2="42.5" y2="10"/>
<path fill="none" stroke="#666666" stroke-width="6" stroke-miterlimit="10" d="M28.4,0"/>
<path fill="none" stroke="#666666" stroke-width="6" stroke-miterlimit="10" d="M5.7,16.1"/>
<path fill="none" stroke="#666666" stroke-width="6" stroke-miterlimit="10" d="M42.1,10"/>
<path fill="none" stroke="#666666" stroke-width="6" stroke-miterlimit="10" d="M-0.7,30"/>
<path fill="none" stroke="#666666" stroke-width="6" stroke-miterlimit="10" d="M16.1,27.3"/>
<path fill="none" stroke="#666666" stroke-width="6" stroke-miterlimit="10" d="M0,71.6"/>
<path fill="none" stroke="#666666" stroke-width="6" stroke-miterlimit="10" d="M10,57.9"/>
<path fill="none" stroke="#666666" stroke-width="6" stroke-miterlimit="10" d="M30,100.7"/>
<path fill="none" stroke="#666666" stroke-width="6" stroke-miterlimit="10" d="M27.3,83.9"/>
<path fill="none" stroke="#666666" stroke-width="6" stroke-miterlimit="10" d="M71.6,100"/>
<path fill="none" stroke="#666666" stroke-width="6" stroke-miterlimit="10" d="M57.9,90"/>
<path fill="none" stroke="#666666" stroke-width="6" stroke-miterlimit="10" d="M100.7,70"/>
<path fill="none" stroke="#666666" stroke-width="6" stroke-miterlimit="10" d="M83.9,72.7"/>
<path fill="none" stroke="#666666" stroke-width="6" stroke-miterlimit="10" d="M100,28.4"/>
<path fill="none" stroke="#666666" stroke-width="6" stroke-miterlimit="10" d="M90,42.1"/>
<path fill="none" stroke="#666666" stroke-width="6" stroke-miterlimit="10" d="M70-0.7"/>
<polygon fill="none" stroke="#666666" stroke-width="6" stroke-miterlimit="10" points="58.2,10.2 73.1,16.5 73.2,16.4 78,11.6 
	88.4,22 83.6,26.8 83.6,26.9 83.9,27.7 90,42.7 90.2,42.7 97,42.7 97,57.3 90.1,57.3 90.1,57.4 89.8,58.2 83.5,73.1 83.6,73.2 
	88.4,78 78,88.4 73.2,83.6 73.1,83.6 72.3,83.9 57.3,90 57.3,90.2 57.3,97 42.7,97 42.7,90.1 42.6,90.1 41.8,89.8 26.9,83.5 
	26.8,83.6 22,88.4 11.6,78 16.4,73.2 16.4,73.1 16.1,72.3 10,57.3 9.8,57.3 3,57.3 3,42.7 9.9,42.7 10.2,41.8 16.5,26.9 16.4,26.8 
	11.6,22 22,11.6 26.8,16.4 27.7,16.1 42.7,10 42.7,9.8 42.7,3 57.3,3 57.3,9.9 57.4,9.9 "/>
<circle fill="none" stroke="#666666" stroke-width="7" stroke-miterlimit="10" cx="50" cy="50" r="17.5"/>
</svg>
